<svg xmlns="http://www.w3.org/2000/svg" viewBox="0 0 167.54 152.25"><defs><style>.cls-1{fill:#b02a9e;}.cls-1,.cls-2,.cls-3,.cls-4,.cls-5,.cls-6,.cls-7,.cls-8{fill-rule:evenodd;}.cls-2{fill:#972aab;}.cls-3{fill:#f04471;}.cls-4{fill:#cf2a8c;}.cls-5{fill:#9f2aa6;}.cls-6{fill:#b52a9b;}.cls-7{fill:#f38259;}.cls-8{fill:#f5ab4a;}.cls-9{fill:#fff;}</style></defs><title>Asset 1</title><g id="Layer_2" data-name="Layer 2"><g id="OBJECTS"><path class="cls-1" d="M14.77,38.12C6.05,21.21,8.56,12.83,29.12,4.94S139.48-.56,132.8,6.28s1.3,4.81-1.09,6.75c-7,4.33-14.85,3.94-22.61,4-18,0-35.94-.47-53.93-.58-13.63-.07-24.45,4.28-30.84,17C21.86,36.51,19,38.83,14.77,38.12Z"/><path class="cls-2" d="M128.47,12c0-1.56,0-3.13.06-4.69l4.7.06c3.67,6.73,11.44,3.31,16.37,6.56,6.16,4.07,4.5,6.84-2,8-4.39,3.66-1.56,10-5.12,14q-.08,4.61-.14,9.22c-12.89.11-15.3-11.32-21.06-19.08C119.39,19.19,123.16,15.21,128.47,12Z"/><path class="cls-3" d="M14.77,38.12l5-5.08c19.83-21.87,47.54-17.26,68.7-11,20.91,6.2,41.12,20.48,61.09,32.21,10.91,11.07,12.12,23.69,6,37.48-.27,3.83-1.49,7.12-5.26,8.88-4.72,4.87-3.93,12-7.13,17.5-7.18,7.39-18.87,11.05-25.45,7.11-18.18-10.87-23.57-.58-28.89,13.11-36.06,18-33.79,15.05-62.29-15.55C.61,94.93-.25,69,14.77,38.12Z"/><path class="cls-4" d="M146.31,58.27c-5.83,1-5-22-16.84-3.85-4.56,7-9.19-4.12-13.21-7.94C91,22.53,47.88,16.5,19.8,33,23.39,15.87,34.37,9.13,51.37,9.82c19.23.77,38.5.88,57.75,1.28,6.13,4.78,9.36,13.52,18.79,13.77,9.37,3.36,11.3,13.91,18.65,19.21l4.84,4.57C154.22,54.25,149.63,55.92,146.31,58.27Z"/><path class="cls-4" d="M88.86,138.35c7.08-12.73-9.23-7.73-11.63-16,16.06.27,29.23-5.85,38.86-17.45,8.39,8-1.24,11.37.19,17.72,9.24,1.57,17-2.53,24.49-7.68,8.82-.48,7.56,4,4.68,9.39Z"/><path class="cls-5" d="M146.31,58.27c1.71-3.21,3.39-6.41,5.09-9.62,12.64,13.28,26.82,26.4,4.18,43.09C152.71,80.52,156.46,67.48,146.31,58.27Z"/><path class="cls-5" d="M145.45,124.29c-.25-3.78-.84-7.39-4.68-9.39.14-6.81,2.71-12,9.57-14.27C145.15,107.79,163,119.68,145.45,124.29Z"/><path class="cls-1" d="M142.42,37c-2.48-6.19-8.64-16.17,4.38-16.67,6.6-2.29,10.54,14.09,10.54,14.09S144.44,43.53,142.42,37Z"/><path class="cls-6" d="M127.91,24.87c-1.47,2.43-3.92,7.11-4.27,7-9-3.87-15.27-9.93-14.52-20.73L132.74,11Z"/><path class="cls-7" d="M32.35,147.91l-4.46-1.44c-18.67-5.14-24.16-22.73-26.75-37C-1.41,95.42,1,79.36,1.94,64.2,5.19,54.54,12.23,50.1,22.1,49.6c2.33-1,4.61-1.23,6.77.46,4.24,1.32,8.18-1.25,12.35-1,6.44,2,12,7.78,11.69,12.8-1,13.85,6.62,14,16.21,13C90.3,90.69,87.93,90.23,78.44,116,69.8,139.4,54.86,147.58,32.35,147.91Z"/><path class="cls-8" d="M13.21,136.66c-2.79-.28-5.56-.58-8.33-.91.3-2.79.6-5.56.91-8.35,12.57-5.37,7.82-19.75,14.42-28,8.28-10.24,12.91-6.82,13.89,5,5.75,8.42,17.46,4.46,23.9,11.45q8.16.93,16.35,1.83c-2,22.92-22.7,25.24-37.47,34.15C24.37,154,18,146.62,13.21,136.66Z"/><path class="cls-9" d="M96.31,120.7l-39.52-.51A31.86,31.86,0,0,1,25.39,88l.45-34.83a31.86,31.86,0,0,1,32.22-31.4l39.52.51A31.85,31.85,0,0,1,129,54.47l-.45,34.83A31.86,31.86,0,0,1,96.31,120.7ZM58,28.81A24.77,24.77,0,0,0,32.91,53.23l-.45,34.83a24.77,24.77,0,0,0,24.42,25.06l39.52.51a24.77,24.77,0,0,0,25.06-24.42l.45-34.83A24.77,24.77,0,0,0,97.49,29.32Z"/><path class="cls-9" d="M76.82,99.54A28.32,28.32,0,1,1,105.5,71.59,28.36,28.36,0,0,1,76.82,99.54ZM77.46,50a21.25,21.25,0,1,0,21,21.52A21.28,21.28,0,0,0,77.46,50Z"/><path class="cls-9" d="M111.3,44.21a5.88,5.88,0,1,1-5.8-6A5.88,5.88,0,0,1,111.3,44.21Z"/></g></g></svg>